<svg width="524" height="476" viewBox="0 0 524 476" fill="none" xmlns="http://www.w3.org/2000/svg">
<rect width="524" height="476" rx="14" fill="#EFF3FF"/>
<g filter="url(#filter0_d_2_345)">
<rect x="30" y="116" width="464" height="329" rx="8" fill="#FBFBFB"/>
<rect x="159" y="326" width="10" height="53" rx="2" fill="#2C66FE"/>
<rect x="159" y="251" width="10" height="67" rx="2" fill="#FED056"/>
<rect x="109" y="326" width="10" height="84" rx="2" fill="#2C66FE"/>
<rect x="109" y="276" width="10" height="42" rx="2" fill="#FED056"/>
<rect x="59" y="326" width="10" height="59" rx="2" fill="#2C66FE"/>
<rect x="59" y="259" width="10" height="59" rx="2" fill="#FED056"/>
<rect x="209" y="326" width="10" height="75" rx="2" fill="#2C66FE"/>
<rect x="209" y="270" width="10" height="48" rx="2" fill="#FED056"/>
<rect x="259" y="326" width="10" height="98" rx="2" fill="#2C66FE"/>
<rect x="259" y="294" width="10" height="24" rx="2" fill="#FED056"/>
<rect x="309" y="326" width="10" height="24" rx="2" fill="#2C66FE"/>
<rect x="309" y="234" width="10" height="84" rx="2" fill="#FED056"/>
<rect x="359" y="326" width="10" height="86" rx="2" fill="#2C66FE"/>
<rect x="359" y="287" width="10" height="31" rx="2" fill="#FED056"/>
<rect x="409" y="326" width="10" height="59" rx="2" fill="#2C66FE"/>
<rect x="409" y="265" width="10" height="53" rx="2" fill="#FED056"/>
<rect x="459" y="326" width="10" height="42" rx="2" fill="#2C66FE"/>
<rect x="459" y="251" width="10" height="67" rx="2" fill="#FED056"/>
<rect x="55" y="137" width="175" height="16" rx="2" fill="#E5EBFC"/>
<rect x="74" y="177" width="112" height="8" rx="2" fill="#E5EBFC"/>
<rect x="221" y="177" width="112" height="8" rx="2" fill="#E5EBFC"/>
<rect x="55" y="176" width="11" height="10" rx="2" fill="#FED056"/>
<rect x="202" y="176" width="11" height="10" rx="2" fill="#2C66FE"/>
</g>
<g filter="url(#filter1_d_2_345)">
<rect x="30" y="32" width="464" height="60" rx="8" fill="#FBFBFB"/>
<rect x="43" y="46" width="143" height="16" rx="2" fill="#E5EBFC"/>
<rect x="405" y="46" width="64" height="8" rx="2" fill="#E5EBFC"/>
<rect x="430" y="62" width="39" height="16" rx="2" fill="#BDCFFF"/>
<rect x="43" y="70" width="93" height="8" rx="2" fill="#E5EBFC"/>
</g>
<defs>
<filter id="filter0_d_2_345" x="6" y="96" width="512" height="377" filterUnits="userSpaceOnUse" color-interpolation-filters="sRGB">
<feFlood flood-opacity="0" result="BackgroundImageFix"/>
<feColorMatrix in="SourceAlpha" type="matrix" values="0 0 0 0 0 0 0 0 0 0 0 0 0 0 0 0 0 0 127 0" result="hardAlpha"/>
<feOffset dy="4"/>
<feGaussianBlur stdDeviation="12"/>
<feComposite in2="hardAlpha" operator="out"/>
<feColorMatrix type="matrix" values="0 0 0 0 0 0 0 0 0 0 0 0 0 0 0 0 0 0 0.1 0"/>
<feBlend mode="normal" in2="BackgroundImageFix" result="effect1_dropShadow_2_345"/>
<feBlend mode="normal" in="SourceGraphic" in2="effect1_dropShadow_2_345" result="shape"/>
</filter>
<filter id="filter1_d_2_345" x="6" y="12" width="512" height="108" filterUnits="userSpaceOnUse" color-interpolation-filters="sRGB">
<feFlood flood-opacity="0" result="BackgroundImageFix"/>
<feColorMatrix in="SourceAlpha" type="matrix" values="0 0 0 0 0 0 0 0 0 0 0 0 0 0 0 0 0 0 127 0" result="hardAlpha"/>
<feOffset dy="4"/>
<feGaussianBlur stdDeviation="12"/>
<feComposite in2="hardAlpha" operator="out"/>
<feColorMatrix type="matrix" values="0 0 0 0 0 0 0 0 0 0 0 0 0 0 0 0 0 0 0.1 0"/>
<feBlend mode="normal" in2="BackgroundImageFix" result="effect1_dropShadow_2_345"/>
<feBlend mode="normal" in="SourceGraphic" in2="effect1_dropShadow_2_345" result="shape"/>
</filter>
</defs>
</svg>
